<svg id="visual" viewBox="0 0 900 600" width="900" height="600" xmlns="http://www.w3.org/2000/svg" xmlns:xlink="http://www.w3.org/1999/xlink" version="1.1"><rect x="0" y="0" width="900" height="600" fill="#050506"></rect><g fill="#270744"><path d="M0 -108.5L24.4 -33.5L103.2 -33.5L39.4 12.8L63.8 87.8L0 41.5L-63.8 87.8L-39.4 12.8L-103.2 -33.5L-24.4 -33.5Z" transform="translate(657 598)"></path><path d="M0 -61.3L13.8 -19L58.3 -19L22.3 7.2L36.1 49.6L0 23.4L-36.1 49.6L-22.3 7.2L-58.3 -19L-13.8 -19Z" transform="translate(471 392)"></path><path d="M0 -102.9L23.1 -31.8L97.8 -31.8L37.4 12.1L60.5 83.2L0 39.3L-60.5 83.2L-37.4 12.1L-97.8 -31.8L-23.1 -31.8Z" transform="translate(789 67)"></path><path d="M0 -62.3L14 -19.2L59.2 -19.2L22.6 7.4L36.6 50.4L0 23.8L-36.6 50.4L-22.6 7.4L-59.2 -19.2L-14 -19.2Z" transform="translate(148 489)"></path><path d="M0 -101.9L22.9 -31.5L96.9 -31.5L37 12L59.9 82.5L0 38.9L-59.9 82.5L-37 12L-96.9 -31.5L-22.9 -31.5Z" transform="translate(189 141)"></path></g></svg>